#!OML:ASF I:\golf\golf\golf 2\Subject 1\2002-09-07\Subject1.ASF
:FULLY-SPECIFIED
:DEGREES
362
root -5.17337 18.0338 -3.41007 -167.624 -0.646514 -172.626
lowerback -10.4729 11.777 14.8189
upperback -15.6234 20.6652 1.72383
thorax -8.19072 10.9725 -4.86969
lowerneck -8.08618 -20.1856 -5.26999
upperneck 13.6895 -28.4899 4.70305
head 6.88585 -13.9854 -0.447933
rclavicle -2.10712e-014 2.94201e-014
rhumerus 111.516 29.0287 -52.7842
rradius 69.2675
rwrist 15.4287
rhand -36.7743 22.4142
rfingers 7.12502
rthumb -9.85685 -7.33511
lclavicle -2.10712e-014 2.94201e-014
lhumerus 72.2698 20.8787 68.4788
lradius 80.7748
lwrist 27.1927
lhand -26.2997 12.8558
lfingers 7.12502
lthumb -179.744 -137.165
rfemur 19.6887 -13.4654 22.73
rtibia 5.63012
rfoot 21.4019 -44.6692
rtoes 36.1634
lfemur -26.8011 -17.6979 -11.165
ltibia 27.7364
lfoot 15.286 -45.0568
ltoes 37.9728
363
root -5.16367 18.028 -3.45454 -167.722 -1.30254 -172.53
lowerback -11.1409 17.1437 13.5439
upperback -16.1146 18.9808 0.399637
thorax -7.64129 6.81207 -4.72216
lowerneck -8.15184 -20.2715 -5.30017
upperneck 13.631 -28.6064 4.81168
head 6.90347 -14.0309 -0.435875
rclavicle -9.44227e-014 -7.27552e-014
rhumerus 112.012 28.316 -52.3107
rradius 70.3491
rwrist 15.4277
rhand -38.0468 23.12
rfingers 7.12502
rthumb -11.0844 -6.56729
lclavicle -9.44227e-014 -7.27552e-014
lhumerus 73.0601 21.48 68.5117
lradius 81.1022
lwrist 25.8554
lhand -26.5894 12.0062
lfingers 7.12502
lthumb -180.024 -138.014
rfemur 20.3842 -13.4339 22.8917
rtibia 4.74242
rfoot 24.5839 -43.3521
rtoes 35.9638
lfemur -26.8153 -18.0505 -10.9957
ltibia 27.9704
lfoot 15.787 -45.2956
ltoes 38.8068
364
root -5.15847 18.0215 -3.4935 -167.787 -1.97032 -172.38
lowerback -11.4982 17.0832 13.4785
upperback -16.1377 18.8387 0.285991
thorax -7.48123 6.76109 -4.75063
lowerneck -8.27485 -20.3703 -5.34687
upperneck 13.8786 -28.8015 4.90753
head 7.03502 -14.1111 -0.464414
rclavicle -5.66536e-014 -6.87795e-014
rhumerus 112.311 27.6908 -52.0166
rradius 71.3914
rwrist 15.7889
rhand -39.6948 23.4305
rfingers 7.12502
rthumb -12.6736 -6.16498
lclavicle -5.66536e-014 -6.87795e-014
lhumerus 73.9912 21.8763 69.2848
lradius 81.396
lwrist 24.2735
lhand -26.4455 11.0296
lfingers 7.12502
lthumb -179.884 -138.991
rfemur 20.9131 -13.3963 23.1072
rtibia 4.06073
rfoot 26.9469 -42.2011
rtoes 36.0395
lfemur -26.8783 -18.3968 -10.7694
ltibia 28.1916
lfoot 16.2346 -45.5247
ltoes 39.673
365
root -5.15028 18.0152 -3.52932 -167.891 -2.59779 -172.344
lowerback -11.7075 17.0263 13.2898
upperback -16.1943 18.7529 0.132942
thorax -7.44858 6.74111 -4.7991
lowerneck -8.1935 -20.4948 -5.43401
upperneck 13.9275 -29.0224 5.06535
head 7.08567 -14.2131 -0.440829
rclavicle -3.56818e-014 -4.8901e-014
rhumerus 112.525 27.234 -51.9545
rradius 72.0221
rwrist 16.4361
rhand -40.6538 24.0509
rfingers 7.12502
rthumb -13.598 -5.485
lclavicle -3.56818e-014 -4.8901e-014
lhumerus 74.4669 22.7328 68.3979
lradius 81.8072
lwrist 24.0136
lhand -27.6293 10.8476
lfingers 7.12502
lthumb -181.028 -139.175
rfemur 21.2985 -13.3594 23.2305
rtibia 3.7
rfoot 29.1346 -41.1301
rtoes 36.2973
lfemur -26.9006 -18.7483 -10.6707
ltibia 28.421
lfoot 16.7599 -45.6364
ltoes 40.4983
366
root -5.13946 18.009 -3.56238 -167.961 -3.2167 -172.286
lowerback -11.9387 16.9802 13.0767
upperback -16.2827 18.668 0.00428379
thorax -7.45738 6.71418 -4.81059
lowerneck -7.80405 -20.5506 -5.46419
upperneck 13.3474 -29.0745 5.32581
head 6.88083 -14.2485 -0.294854
rclavicle 1.07195e-013 -3.27995e-014
rhumerus 112.758 26.7495 -51.7485
rradius 72.5634
rwrist 16.6715
rhand -41.8047 24.5338
rfingers 7.12502
rthumb -14.707 -4.92455
lclavicle 1.07195e-013 -3.27995e-014
lhumerus 74.7825 23.1983 67.9465
lradius 82.2425
lwrist 23.3599
lhand -28.7896 10.802
lfingers 7.12502
lthumb -182.149 -139.229
rfemur 21.4669 -13.3312 23.4461
rtibia 3.65173
rfoot 30.7714 -40.1677
rtoes 36.6468
lfemur -26.9769 -19.0846 -10.5282
ltibia 28.6519
lfoot 17.2292 -45.7081
ltoes 41.0709
367
root -5.13279 18.0021 -3.59266 -168.015 -3.80809 -172.173
lowerback -12.2433 16.905 12.984
upperback -16.313 18.5142 -0.0476993
thorax -7.36532 6.65146 -4.78365
lowerneck -7.93957 -20.5416 -5.52696
upperneck 13.4005 -29.0292 5.30042
head 6.92217 -14.2204 -0.309689
rclavicle -1.23246e-013 -9.47706e-014
rhumerus 112.984 26.3495 -51.4801
rradius 73.2744
rwrist 16.5814
rhand -43.0026 24.8137
rfingers 7.12502
rthumb -15.8608 -4.55664
lclavicle -1.23246e-013 -9.47706e-014
lhumerus 75.0561 23.6582 67.7203
lradius 82.6018
lwrist 22.3119
lhand -29.3036 10.7479
lfingers 7.12502
lthumb -182.645 -139.289
rfemur 21.4077 -13.276 23.7398
rtibia 3.97195
rfoot 32.3599 -38.7391
rtoes 35.6178
lfemur -27.06 -19.3792 -10.344
ltibia 28.8497
lfoot 17.4151 -45.8717
ltoes 41.3852
368
root -5.12991 17.9979 -3.62023 -168.044 -4.32881 -172.234
lowerback -12.5403 16.7578 12.7654
upperback -16.268 18.2868 -0.0371959
thorax -7.25376 6.57617 -4.64933
lowerneck -8.36717 -20.5094 -5.63495
upperneck 13.8303 -28.9481 5.11054
head 7.11261 -14.1661 -0.417007
rclavicle 7.21837e-014 8.1452e-014
rhumerus 113.207 26.166 -51.3217
rradius 73.9978
rwrist 16.3691
rhand -44.0537 25.5897
rfingers 7.12502
rthumb -16.8729 -3.69729
lclavicle 7.21837e-014 8.1452e-014
lhumerus 75.2306 24.3287 67.4812
lradius 82.8879
lwrist 21.1423
lhand -29.6072 10.6186
lfingers 7.12502
lthumb -182.938 -139.422
rfemur 21.199 -13.1861 23.8396
rtibia 4.47563
rfoot 34.1803 -36.9235
rtoes 33.3387
lfemur -27.1195 -19.5992 -10.3935
ltibia 28.9927
lfoot 17.5571 -46.0971
ltoes 41.6047
369
root -5.12395 17.9966 -3.64881 -168.071 -4.78543 -172.326
lowerback -12.7449 16.7572 12.4855
upperback -16.372 18.2754 -0.244455
thorax -7.27337 6.58756 -4.70519
lowerneck -8.29514 -20.5996 -5.39364
upperneck 13.7885 -29.0794 4.99484
head 7.04207 -14.2366 -0.46958
rclavicle 1.04523e-013 9.57272e-014
rhumerus 113.268 26.5194 -51.2841
rradius 74.1752
rwrist 16.9821
rhand -45.0728 26.636
rfingers 7.12502
rthumb -17.8537 -2.56445
lclavicle 1.04523e-013 9.57272e-014
lhumerus 75.4461 24.4284 67.2735
lradius 83.1117
lwrist 20.0217
lhand -30.1076 10.6487
lfingers 7.12502
lthumb -183.421 -139.399
rfemur 20.9078 -13.0599 23.9496
rtibia 5.08265
rfoot 35.5396 -35.447
rtoes 31.2777
lfemur -27.14 -19.8073 -10.4629
ltibia 29.0852
lfoot 17.7769 -46.2724
ltoes 41.9343
370
root -5.1175 17.9964 -3.67852 -168.14 -5.20298 -172.398
lowerback -12.9102 16.7572 12.229
upperback -16.4628 18.2679 -0.383582
thorax -7.31553 6.59891 -4.70966
lowerneck -8.08814 -20.6882 -5.37976
upperneck 13.6732 -29.1927 4.97503
head 6.97149 -14.3043 -0.457605
rclavicle -6.66923e-014 -8.26944e-014
rhumerus 113.982 28.4891 -50.9701
rradius 73.468
rwrist 19.2484
rhand -46.084 27.8073
rfingers 7.12502
rthumb -18.8265 -1.30167
lclavicle -6.66923e-014 -8.26944e-014
lhumerus 75.6216 24.4424 67.1917
lradius 83.261
lwrist 18.9604
lhand -30.3601 10.4939
lfingers 7.12502
lthumb -183.665 -139.558
rfemur 20.6324 -12.9074 24.0994
rtibia 5.76485
rfoot 36.3172 -34.4392
rtoes 30.0446
lfemur -27.0794 -20.096 -10.4946
ltibia 29.1352
lfoot 18.1095 -46.2726
ltoes 42.6339
371
root -5.11531 17.9954 -3.70391 -168.159 -5.58874 -172.46
lowerback -13.1041 16.7683 12.0616
upperback -16.5349 18.257 -0.502158
thorax -7.30525 6.60266 -4.72221
lowerneck -7.99664 -20.7517 -5.5304
upperneck 13.7136 -29.2787 5.01049
head 7.00096 -14.3502 -0.440732
rclavicle -4.22417e-014 -5.9039e-014
rhumerus 113.692 27.9902 -50.9805
rradius 73.9835
rwrist 18.9549
rhand -46.9043 28.5673
rfingers 7.12502
rthumb -19.6152 -0.463139
lclavicle -4.22417e-014 -5.9039e-014
lhumerus 75.7264 24.4583 67.1186
lradius 83.3781
lwrist 17.9494
lhand -30.7117 10.2881
lfingers 7.12502
lthumb -184.005 -139.77
rfemur 20.3619 -12.7154 24.2567
rtibia 6.34177
rfoot 37.2119 -33.3795
rtoes 28.4877
lfemur -27.0667 -20.3698 -10.5129
ltibia 29.1743
lfoot 18.6501 -46.1977
ltoes 43.8424
372
root -5.11415 17.9922 -3.72464 -168.178 -5.95384 -172.441
lowerback -13.2387 16.7852 12.0743
upperback -16.6121 18.249 -0.640255
thorax -7.27726 6.58919 -4.84509
lowerneck -8.01914 -20.7486 -5.6107
upperneck 13.8307 -29.3002 5.08786
head 7.06778 -14.355 -0.429785
rclavicle 1.32192e-014 -1.68967e-015
rhumerus 113.467 27.805 -51.0918
rradius 74.3118
rwrist 18.9154
rhand -47.7999 29.1798
rfingers 7.12502
rthumb -20.4762 0.239564
lclavicle 1.32192e-014 -1.68967e-015
lhumerus 75.7558 24.5296 66.8574
lradius 83.4922
lwrist 17.0017
lhand -31.0214 10.3232
lfingers 7.12502
lthumb -184.304 -139.741
rfemur 20.1575 -12.4887 24.5018
rtibia 6.76071
rfoot 37.8103 -32.7799
rtoes 27.2568
lfemur -27.0847 -20.5794 -10.4507
ltibia 29.2392
lfoot 19.3706 -46.1258
ltoes 45.3638
373
root -5.10918 17.9898 -3.74492 -168.219 -6.31772 -172.362
lowerback -13.3149 16.7768 12.1197
upperback -16.6985 18.2157 -0.753265
thorax -7.29424 6.55648 -4.97725
lowerneck -8.03073 -20.702 -5.61357
upperneck 13.8808 -29.2557 5.1503
head 7.09445 -14.329 -0.413845
rclavicle 1.3418e-014 -1.88845e-014
rhumerus 113.137 27.7582 -51.3186
rradius 74.6256
rwrist 19.0071
rhand -48.5449 29.9048
rfingers 7.12502
rthumb -21.1919 1.04316
lclavicle 1.3418e-014 -1.88845e-014
lhumerus 75.6621 24.7413 66.4101
lradius 83.5833
lwrist 16.1589
lhand -31.0541 10.0935
lfingers 7.12502
lthumb -184.335 -139.971
rfemur 19.9957 -12.2621 24.8409
rtibia 7.10508
rfoot 37.5206 -33.2291
rtoes 27.8231
lfemur -27.1035 -20.7225 -10.323
ltibia 29.3313
lfoot 20.1014 -46.1174
ltoes 46.5381
374
root -5.10394 17.9884 -3.76578 -168.15 -6.62039 -172.247
lowerback -13.5421 16.7992 12.1085
upperback -16.7862 18.1825 -0.817258
thorax -7.26753 6.52651 -4.99925
lowerneck -8.04047 -20.6806 -5.63418
upperneck 13.932 -29.2108 5.10026
head 7.10561 -14.3095 -0.423719
rclavicle 1.42827e-013 1.23843e-013
rhumerus 112.72 27.5827 -51.5203
rradius 75.036
rwrist 18.8975
rhand -49.256 30.5144
rfingers 7.12502
rthumb -21.8749 1.73096
lclavicle 1.42827e-013 1.23843e-013
lhumerus 75.517 25.0179 65.9386
lradius 83.5759
lwrist 15.4156
lhand -31.3547 9.79
lfingers 7.12502
lthumb -184.626 -140.281
rfemur 19.6994 -11.9629 25.2402
rtibia 7.42365
rfoot 37.2452 -33.818
rtoes 28.7608
lfemur -27.2431 -20.7876 -10.1339
ltibia 29.433
lfoot 20.5957 -46.2085
ltoes 47.1404
